<svg xmlns="http://www.w3.org/2000/svg" width="1060" height="742"><defs><clipPath id="a"><circle r="735"/></clipPath></defs><path fill="#009b3a" fill-rule="evenodd" d="M0 0h1060v742H0z"/><g transform="translate(530 371) scale(.25238)"><path fill="#fedf00" d="M-1743 0L0 1113 1743 0 0-1113z"/><circle r="735" fill="#002776"/><path fill="#fff" d="M-2205 1470a1785 1785 0 0 1 3570 0h-105a1680 1680 0 1 0-3360 0z" clip-path="url(#a)"/><g fill="#009b3a"><path fill-rule="evenodd" d="M-626.873-214.847a31.5 35-7 0 0-8.531-69.478 31.5 35-7 0 0 8.53 69.478m-1.584-12.903a18.5 22-7 0 0-5.362-43.672 18.5 22-7 0 0 5.362 43.672M-569.835-221.168l12.968-.906-1.813-25.937 27.932-1.953a22 22 0 0 0-3.07-43.893l-39.902 2.79zm10.248-39.811l26.934-1.884a9 9 0 0 0-1.255-17.956l-26.935 1.883z"/><path d="M-510.48-225.318c-.697-9.976-2.232-31.922-17.195-30.876l-18.954 1.326c21.946-1.535 23.48 20.411 24.178 30.387"/><path fill-rule="evenodd" d="M-481.12-226.692l32.994-.576a30 30 0 0 0 29.472-30.519l-.174-9.998a30 30 0 0 0-30.52-29.472l-32.994.576zm12.77-13.225l18.998-.331a19 19 0 0 0 18.665-19.329l-.105-5.999a19 19 0 0 0-19.328-18.666l-18.997.332z"/><path d="M-392.239-227.565l62.962 2.198.453-12.992-50.969-1.78.629-17.989 39.975 1.396.42-11.992-39.977-1.396.489-13.992 47.97 1.675.454-12.992-59.963-2.094zM-303.433-223.786l11.954 1.046 4.184-47.817 9.763 49.037 10.958.959 18.13-46.597-4.183 47.817 11.954 1.046 6.1-69.734-17.432-1.525-18.13 46.597-9.764-49.037-17.433-1.526zM-158.4-207.427l51.742 8.891 2.032-11.827-39.915-6.858 2.71-15.77 32.523 5.59 2.032-11.827-32.523-5.589 1.862-10.841 38.684 6.647 2.032-11.827-50.51-8.679z"/><path fill-rule="evenodd" d="M-25.477-181.318l12.586 3.255 6.51-25.172 27.108 7.011a22 22 0 0 0 11.017-42.598l-38.726-10.016zm22.351-34.502l26.14 6.76a9 9 0 0 0 4.507-17.427l-26.14-6.76zM60.406-158.407l12.398 3.91 7.819-24.797 26.704 8.42a22 22 0 0 0 13.23-41.964L82.41-224.866zm24.126-33.286l25.75 8.12a9 9 0 0 0 5.413-17.167l-25.75-8.12z"/><path d="M117.152-140.515c3.007-9.537 9.623-30.519-4.683-35.03l-18.12-5.713c20.981 6.616 14.366 27.598 11.359 37.135"/><path fill-rule="evenodd" d="M174.477-120.001a31.5 35 20.5 0 0 24.515-65.567 31.5 35 20.5 0 0-24.515 65.567m4.553-12.177a18.5 22 20.5 0 0 15.409-41.213 18.5 22 20.5 0 0-15.41 41.213M256.877-86.71a31.5 35 23.5 0 0 27.912-64.194 31.5 35 23.5 0 0-27.912 64.195m5.183-11.922a18.5 22 23.5 0 0 17.545-40.35 18.5 22 23.5 0 0-17.545 40.35"/><path d="M275.418-116.813l24.302 10.567-3.987 9.17-24.302-10.566z"/><path d="M290.55-110.233l9.17 3.987-13.956 32.097-9.17-3.987z"/><path fill-rule="evenodd" d="M309.23-63.206l11.635 5.8 11.6-23.268 25.059 12.493a22 22 0 0 0 19.633-39.377l-35.798-17.848zm29.036-29.102l24.163 12.047a9 9 0 0 0 8.032-16.109l-24.163-12.047z"/><path d="M362.479-36.658c4.462-8.949 14.278-28.637.854-35.33l-17.003-8.478c19.688 9.816 9.872 29.505 5.41 38.454M388.473-22.94l54.832 31.022 6.402-11.314-44.388-25.114 8.863-15.666 34.814 19.697 5.91-10.444-34.815-19.697 6.894-12.185 41.777 23.636 6.402-11.315-52.222-29.545zM490.603 11.326c-3.76 5.904.051 12.482 8.485 17.855 8.434 5.373 14.178 5.18 16.605 1.39 7.656-12.02-36.608-29.547-22.965-50.498 11.763-17.998 31.889-3.991 39.48.845 7.59 4.835 19.778 17.343 10.299 31.757l-12.862-8.194c4.03-6.325-.396-12.406-7.143-16.704-6.537-4.164-11.847-6.065-15.742.05-6.524 9.776 36.857 28.224 23.56 49.098-9.807 15.392-26.868 8.672-38.254 1.418-9.699-6.178-24.191-20.747-14.746-35.48zM565.696 60.982c-4.065 5.7-.602 12.468 7.54 18.275 8.14 5.807 13.887 5.914 16.508 2.256 8.275-11.6-35.011-31.422-20.29-51.63 12.689-17.358 32.054-2.316 39.38 2.91 7.328 5.226 18.845 18.355 8.624 32.253l-12.415-8.856c4.355-6.106.254-12.41-6.26-17.055-6.309-4.5-11.512-6.677-15.722-.774-7.027 9.42 35.33 30.114 20.957 50.263-10.598 14.858-27.284 7.254-38.275-.585-9.362-6.678-23.072-21.985-12.869-36.203z"/><path fill-rule="evenodd" d="M636.719 141.523a31.5 35 38.5 0 0 43.576-54.783 31.5 35 38.5 0 0-43.576 54.783m8.092-10.174a18.5 22 38.5 0 0 27.39-34.435 18.5 22 38.5 0 0-27.39 34.435"/></g><g fill="#fff"><path d="M-600-163.5l-9.734 29.958 14.98 4.867"/><path d="M-600-163.5l9.734 29.958-14.98 4.867"/><path d="M-570.042-141.734h-31.5v15.75"/><path d="M-570.042-141.734l-25.484 18.515-9.257-12.742"/><path d="M-629.958-141.734l25.484 18.515 9.257-12.742"/><path d="M-629.958-141.734h31.5v15.75"/><g><path d="M-581.485-106.516l-9.734-29.958-14.979 4.867"/><path d="M-581.485-106.516l-25.484-18.515 9.258-12.742"/></g><g><path d="M-618.515-106.516l25.484-18.515-9.258-12.742"/><path d="M-618.515-106.516l9.734-29.958 14.979 4.867"/></g></g><g fill="#fff"><path d="M-535 145.5l-9.734 29.958 14.98 4.867"/><path d="M-535 145.5l9.734 29.958-14.98 4.867"/><path d="M-505.042 167.266h-31.5v15.75"/><path d="M-505.042 167.266l-25.484 18.515-9.257-12.742"/><path d="M-564.958 167.266l25.484 18.515 9.257-12.742"/><path d="M-564.958 167.266h31.5v15.75"/><g><path d="M-516.485 202.484l-9.734-29.958-14.979 4.867"/><path d="M-516.485 202.484l-25.484-18.515 9.258-12.742"/></g><g><path d="M-553.515 202.484l25.484-18.515-9.258-12.742"/><path d="M-553.515 202.484l9.734-29.958 14.979 4.867"/></g></g><g fill="#fff"><path d="M-625 216.75l-8.112 24.965 12.483 4.056"/><path d="M-625 216.75l8.112 24.965-12.483 4.056"/><path d="M-600.035 234.888h-26.25v13.125"/><path d="M-600.035 234.888l-21.236 15.43-7.715-10.619"/><path d="M-649.965 234.888l21.236 15.43 7.715-10.619"/><path d="M-649.965 234.888h26.25v13.125"/><g><path d="M-609.57 264.237l-8.112-24.966-12.483 4.056"/><path d="M-609.57 264.237l-21.237-15.43 7.714-10.618"/></g><g><path d="M-640.43 264.237l21.237-15.43-7.714-10.618"/><path d="M-640.43 264.237l8.112-24.966 12.483 4.056"/></g></g><g fill="#fff"><path d="M-463 117l-4.635 14.266 7.133 2.317"/><path d="M-463 117l4.635 14.266-7.133 2.317"/><path d="M-448.734 127.365h-15v7.5"/><path d="M-448.734 127.365l-12.135 8.816-4.409-6.067"/><path d="M-477.266 127.365l12.135 8.816 4.409-6.067"/><path d="M-477.266 127.365h15v7.5"/><g><path d="M-454.183 144.135l-4.635-14.266-7.133 2.318"/><path d="M-454.183 144.135l-12.135-8.817 4.408-6.067"/></g><g><path d="M-471.817 144.135l12.135-8.817-4.408-6.067"/><path d="M-471.817 144.135l4.635-14.266 7.133 2.318"/></g></g><g fill="#fff"><path d="M-382 223.75l-8.112 24.965 12.483 4.056"/><path d="M-382 223.75l8.112 24.965-12.483 4.056"/><path d="M-357.035 241.888h-26.25v13.125"/><path d="M-357.035 241.888l-21.236 15.43-7.715-10.619"/><path d="M-406.965 241.888l21.236 15.43 7.715-10.619"/><path d="M-406.965 241.888h26.25v13.125"/><g><path d="M-366.57 271.237l-8.112-24.966-12.483 4.056"/><path d="M-366.57 271.237l-21.237-15.43 7.714-10.618"/></g><g><path d="M-397.43 271.237l21.237-15.43-7.714-10.618"/><path d="M-397.43 271.237l8.112-24.966 12.483 4.056"/></g></g><g fill="#fff"><path d="M-404 302l-6.49 19.972 9.987 3.245"/><path d="M-404 302l6.49 19.972-9.987 3.245"/><path d="M-384.028 316.51h-21v10.5"/><path d="M-384.028 316.51l-16.99 12.344-6.17-8.495"/><path d="M-423.972 316.51l16.99 12.344 6.17-8.495"/><path d="M-423.972 316.51h21v10.5"/><g><path d="M-391.657 339.99l-6.489-19.973-9.986 3.245"/><path d="M-391.657 339.99l-16.989-12.344 6.172-8.495"/></g><g><path d="M-416.343 339.99l16.989-12.344-6.172-8.495"/><path d="M-416.343 339.99l6.489-19.973 9.986 3.245"/></g></g><g fill="#fff"><path d="M228-259.5l-9.734 29.958 14.98 4.867"/><path d="M228-259.5l9.734 29.958-14.98 4.867"/><path d="M257.958-237.734h-31.5v15.75"/><path d="M257.958-237.734l-25.484 18.515-9.257-12.742"/><path d="M198.042-237.734l25.484 18.515 9.257-12.742"/><path d="M198.042-237.734h31.5v15.75"/><g><path d="M246.515-202.516l-9.734-29.958-14.979 4.867"/><path d="M246.515-202.516l-25.484-18.515 9.258-12.742"/></g><g><path d="M209.485-202.516l25.484-18.515-9.258-12.742"/><path d="M209.485-202.516l9.734-29.958 14.979 4.867"/></g></g><g fill="#fff"><path d="M515 226.5l-9.734 29.958 14.98 4.867"/><path d="M515 226.5l9.734 29.958-14.98 4.867"/><path d="M544.958 248.266h-31.5v15.75"/><path d="M544.958 248.266l-25.484 18.515-9.257-12.742"/><path d="M485.042 248.266l25.484 18.515 9.257-12.742"/><path d="M485.042 248.266h31.5v15.75"/><g><path d="M533.515 283.484l-9.734-29.958-14.979 4.867"/><path d="M533.515 283.484l-25.484-18.515 9.258-12.742"/></g><g><path d="M496.485 283.484l25.484-18.515-9.258-12.742"/><path d="M496.485 283.484l9.734-29.958 14.979 4.867"/></g></g><g fill="#fff"><path d="M617 244l-6.49 19.972 9.987 3.245"/><path d="M617 244l6.49 19.972-9.987 3.245"/><path d="M636.972 258.51h-21v10.5"/><path d="M636.972 258.51l-16.99 12.344-6.17-8.495"/><path d="M597.028 258.51l16.99 12.344 6.17-8.495"/><path d="M597.028 258.51h21v10.5"/><g><path d="M629.343 281.99l-6.489-19.973-9.986 3.245"/><path d="M629.343 281.99l-16.989-12.344 6.172-8.495"/></g><g><path d="M604.657 281.99l16.989-12.344-6.172-8.495"/><path d="M604.657 281.99l6.489-19.973 9.986 3.245"/></g></g><g fill="#fff"><path d="M545 296.75l-8.112 24.965 12.483 4.056"/><path d="M545 296.75l8.112 24.965-12.483 4.056"/><path d="M569.965 314.888h-26.25v13.125"/><path d="M569.965 314.888l-21.236 15.43-7.715-10.619"/><path d="M520.035 314.888l21.236 15.43 7.715-10.619"/><path d="M520.035 314.888h26.25v13.125"/><g><path d="M560.43 344.237l-8.112-24.966-12.483 4.056"/><path d="M560.43 344.237l-21.237-15.43 7.714-10.618"/></g><g><path d="M529.57 344.237l21.237-15.43-7.714-10.618"/><path d="M529.57 344.237l8.112-24.966 12.483 4.056"/></g></g><g fill="#fff"><path d="M368 450.75l-8.112 24.965 12.483 4.056"/><path d="M368 450.75l8.112 24.965-12.483 4.056"/><path d="M392.965 468.888h-26.25v13.125"/><path d="M392.965 468.888l-21.236 15.43-7.715-10.619"/><path d="M343.035 468.888l21.236 15.43 7.715-10.619"/><path d="M343.035 468.888h26.25v13.125"/><g><path d="M383.43 498.237l-8.112-24.966-12.483 4.056"/><path d="M383.43 498.237l-21.237-15.43 7.714-10.618"/></g><g><path d="M352.57 498.237l21.237-15.43-7.714-10.618"/><path d="M352.57 498.237l8.112-24.966 12.483 4.056"/></g></g><g fill="#fff"><path d="M367 530l-6.49 19.972 9.987 3.245"/><path d="M367 530l6.49 19.972-9.987 3.245"/><path d="M386.972 544.51h-21v10.5"/><path d="M386.972 544.51l-16.99 12.344-6.17-8.495"/><path d="M347.028 544.51l16.99 12.344 6.17-8.495"/><path d="M347.028 544.51h21v10.5"/><g><path d="M379.343 567.99l-6.489-19.973-9.986 3.245"/><path d="M379.343 567.99l-16.989-12.344 6.172-8.495"/></g><g><path d="M354.657 567.99l16.989-12.344-6.172-8.495"/><path d="M354.657 567.99l6.489-19.973 9.986 3.245"/></g></g><g fill="#fff"><path d="M441 398l-6.49 19.972 9.987 3.245"/><path d="M441 398l6.49 19.972-9.987 3.245"/><path d="M460.972 412.51h-21v10.5"/><path d="M460.972 412.51l-16.99 12.344-6.17-8.495"/><path d="M421.028 412.51l16.99 12.344 6.17-8.495"/><path d="M421.028 412.51h21v10.5"/><g><path d="M453.343 435.99l-6.489-19.973-9.986 3.245"/><path d="M453.343 435.99l-16.989-12.344 6.172-8.495"/></g><g><path d="M428.657 435.99l16.989-12.344-6.172-8.495"/><path d="M428.657 435.99l6.489-19.973 9.986 3.245"/></g></g><g fill="#fff"><path d="M500 355.75l-8.112 24.965 12.483 4.056"/><path d="M500 355.75l8.112 24.965-12.483 4.056"/><path d="M524.965 373.888h-26.25v13.125"/><path d="M524.965 373.888l-21.236 15.43-7.715-10.619"/><path d="M475.035 373.888l21.236 15.43 7.715-10.619"/><path d="M475.035 373.888h26.25v13.125"/><g><path d="M515.43 403.237l-8.112-24.966-12.483 4.056"/><path d="M515.43 403.237l-21.237-15.43 7.714-10.618"/></g><g><path d="M484.57 403.237l21.237-15.43-7.714-10.618"/><path d="M484.57 403.237l8.112-24.966 12.483 4.056"/></g></g><g fill="#fff"><path d="M365 384l-6.49 19.972 9.987 3.245"/><path d="M365 384l6.49 19.972-9.987 3.245"/><path d="M384.972 398.51h-21v10.5"/><path d="M384.972 398.51l-16.99 12.344-6.17-8.495"/><path d="M345.028 398.51l16.99 12.344 6.17-8.495"/><path d="M345.028 398.51h21v10.5"/><g><path d="M377.343 421.99l-6.489-19.973-9.986 3.245"/><path d="M377.343 421.99l-16.989-12.344 6.172-8.495"/></g><g><path d="M352.657 421.99l16.989-12.344-6.172-8.495"/><path d="M352.657 421.99l6.489-19.973 9.986 3.245"/></g></g><g fill="#fff"><path d="M-280 3.75l-8.112 24.965 12.483 4.056"/><path d="M-280 3.75l8.112 24.965-12.483 4.056"/><path d="M-255.035 21.888h-26.25v13.125"/><path d="M-255.035 21.888l-21.236 15.43-7.715-10.619"/><path d="M-304.965 21.888l21.236 15.43 7.715-10.619"/><path d="M-304.965 21.888h26.25v13.125"/><g><path d="M-264.57 51.237l-8.112-24.966-12.483 4.056"/><path d="M-264.57 51.237l-21.237-15.43 7.714-10.618"/></g><g><path d="M-295.43 51.237l21.237-15.43-7.714-10.618"/><path d="M-295.43 51.237l8.112-24.966 12.483 4.056"/></g></g><g fill="#fff"><path d="M200-58l-6.49 19.972 9.987 3.245"/><path d="M200-58l6.49 19.972-9.987 3.245"/><path d="M219.972-43.49h-21v10.5"/><path d="M219.972-43.49l-16.99 12.344-6.17-8.495"/><path d="M180.028-43.49l16.99 12.344 6.17-8.495"/><path d="M180.028-43.49h21v10.5"/><g><path d="M212.343-20.01l-6.489-19.973-9.986 3.245"/><path d="M212.343-20.01l-16.989-12.344 6.172-8.495"/></g><g><path d="M187.657-20.01l16.989-12.344-6.172-8.495"/><path d="M187.657-20.01l6.489-19.973 9.986 3.245"/></g></g><g fill="#fff"><path d="M0 298.5l-9.734 29.958 14.98 4.867"/><path d="M0 298.5l9.734 29.958-14.98 4.867"/><path d="M29.958 320.266h-31.5v15.75"/><path d="M29.958 320.266L4.474 338.78l-9.257-12.742"/><path d="M-29.958 320.266l25.484 18.515 9.257-12.742"/><path d="M-29.958 320.266h31.5v15.75"/><g><path d="M18.515 355.484l-9.734-29.958-14.979 4.867"/><path d="M18.515 355.484l-25.484-18.515 9.258-12.742"/></g><g><path d="M-18.515 355.484l25.484-18.515-9.258-12.742"/><path d="M-18.515 355.484l9.734-29.958 14.979 4.867"/></g></g><g fill="#fff"><path d="M85 157.75l-8.112 24.965 12.483 4.056"/><path d="M85 157.75l8.112 24.965-12.483 4.056"/><path d="M109.965 175.888h-26.25v13.125"/><path d="M109.965 175.888l-21.236 15.43-7.715-10.619"/><path d="M60.035 175.888l21.236 15.43 7.715-10.619"/><path d="M60.035 175.888h26.25v13.125"/><g><path d="M100.43 205.237l-8.112-24.966-12.483 4.056"/><path d="M100.43 205.237l-21.237-15.43 7.714-10.618"/></g><g><path d="M69.57 205.237l21.237-15.43-7.714-10.618"/><path d="M69.57 205.237l8.112-24.966 12.483 4.056"/></g></g><g fill="#fff"><path d="M0 91.75l-8.112 24.965 12.483 4.056"/><path d="M0 91.75l8.112 24.965-12.483 4.056"/><path d="M24.965 109.888h-26.25v13.125"/><path d="M24.965 109.888L3.73 125.318l-7.715-10.619"/><path d="M-24.965 109.888l21.236 15.43 7.715-10.619"/><path d="M-24.965 109.888h26.25v13.125"/><g><path d="M15.43 139.237L7.317 114.27l-12.483 4.056"/><path d="M15.43 139.237l-21.237-15.43 7.714-10.618"/></g><g><path d="M-15.43 139.237l21.237-15.43-7.714-10.618"/><path d="M-15.43 139.237l8.112-24.966 12.483 4.056"/></g></g><g fill="#fff"><path d="M-74 163l-6.49 19.972 9.987 3.245"/><path d="M-74 163l6.49 19.972-9.987 3.245"/><path d="M-54.028 177.51h-21v10.5"/><path d="M-54.028 177.51l-16.99 12.344-6.17-8.495"/><path d="M-93.972 177.51l16.99 12.344 6.17-8.495"/><path d="M-93.972 177.51h21v10.5"/><g><path d="M-61.657 200.99l-6.489-19.973-9.986 3.245"/><path d="M-61.657 200.99l-16.989-12.344 6.172-8.495"/></g><g><path d="M-86.343 200.99l16.989-12.344-6.172-8.495"/><path d="M-86.343 200.99l6.489-19.973 9.986 3.245"/></g></g><g fill="#fff"><path d="M-37 220l-4.635 14.266 7.133 2.317"/><path d="M-37 220l4.635 14.266-7.133 2.317"/><path d="M-22.734 230.365h-15v7.5"/><path d="M-22.734 230.365l-12.135 8.816-4.409-6.067"/><path d="M-51.266 230.365l12.135 8.816 4.409-6.067"/><path d="M-51.266 230.365h15v7.5"/><g><path d="M-28.183 247.135l-4.635-14.266-7.133 2.318"/><path d="M-28.183 247.135l-12.135-8.817 4.408-6.067"/></g><g><path d="M-45.817 247.135l12.135-8.817-4.408-6.067"/><path d="M-45.817 247.135l4.635-14.266 7.133 2.318"/></g></g><g fill="#fff"><path d="M220 468.75l-8.112 24.965 12.483 4.056"/><path d="M220 468.75l8.112 24.965-12.483 4.056"/><path d="M244.965 486.888h-26.25v13.125"/><path d="M244.965 486.888l-21.236 15.43-7.715-10.619"/><path d="M195.035 486.888l21.236 15.43 7.715-10.619"/><path d="M195.035 486.888h26.25v13.125"/><g><path d="M235.43 516.237l-8.112-24.966-12.483 4.056"/><path d="M235.43 516.237l-21.237-15.43 7.714-10.618"/></g><g><path d="M204.57 516.237l21.237-15.43-7.714-10.618"/><path d="M204.57 516.237l8.112-24.966 12.483 4.056"/></g></g><g fill="#fff"><path d="M283 409l-6.49 19.972 9.987 3.245"/><path d="M283 409l6.49 19.972-9.987 3.245"/><path d="M302.972 423.51h-21v10.5"/><path d="M302.972 423.51l-16.99 12.344-6.17-8.495"/><path d="M263.028 423.51l16.99 12.344 6.17-8.495"/><path d="M263.028 423.51h21v10.5"/><g><path d="M295.343 446.99l-6.489-19.973-9.986 3.245"/><path d="M295.343 446.99l-16.989-12.344 6.172-8.495"/></g><g><path d="M270.657 446.99l16.989-12.344-6.172-8.495"/><path d="M270.657 446.99l6.489-19.973 9.986 3.245"/></g></g><g fill="#fff"><path d="M162 391l-6.49 19.972 9.987 3.245"/><path d="M162 391l6.49 19.972-9.987 3.245"/><path d="M181.972 405.51h-21v10.5"/><path d="M181.972 405.51l-16.99 12.344-6.17-8.495"/><path d="M142.028 405.51l16.99 12.344 6.17-8.495"/><path d="M142.028 405.51h21v10.5"/><g><path d="M174.343 428.99l-6.489-19.973-9.986 3.245"/><path d="M174.343 428.99l-16.989-12.344 6.172-8.495"/></g><g><path d="M149.657 428.99l16.989-12.344-6.172-8.495"/><path d="M149.657 428.99l6.489-19.973 9.986 3.245"/></g></g><g fill="#fff"><path d="M-295 358.5l-9.734 29.958 14.98 4.867"/><path d="M-295 358.5l9.734 29.958-14.98 4.867"/><path d="M-265.042 380.266h-31.5v15.75"/><path d="M-265.042 380.266l-25.484 18.515-9.257-12.742"/><path d="M-324.958 380.266l25.484 18.515 9.257-12.742"/><path d="M-324.958 380.266h31.5v15.75"/><g><path d="M-276.485 415.484l-9.734-29.958-14.979 4.867"/><path d="M-276.485 415.484l-25.484-18.515 9.258-12.742"/></g><g><path d="M-313.515 415.484l25.484-18.515-9.258-12.742"/><path d="M-313.515 415.484l9.734-29.958 14.979 4.867"/></g></g><g fill="#fff"><path d="M0 564.5l-3.245 9.986 4.993 1.622"/><path d="M0 564.5l3.245 9.986-4.993 1.622"/><path d="M9.986 571.755h-10.5v5.25"/><path d="M9.986 571.755l-8.495 6.172-3.085-4.247"/><path d="M-9.986 571.755l8.495 6.172 3.086-4.247"/><path d="M-9.986 571.755h10.5v5.25"/><g><path d="M6.172 583.495l-3.245-9.986-4.993 1.622"/><path d="M6.172 583.495l-8.495-6.172 3.086-4.247"/></g><g><path d="M-6.172 583.495l8.495-6.172-3.086-4.247"/><path d="M-6.172 583.495l3.245-9.986 4.993 1.622"/></g></g></g></svg>